<svg width="31" height="30" viewBox="0 0 31 30" fill="none" xmlns="http://www.w3.org/2000/svg">
<path d="M15.5 0C7.21601 0 0.5 6.7157 0.5 15C0.5 23.2843 7.21601 30 15.5 30C23.784 30 30.5 23.2843 30.5 15C30.5 6.7157 23.784 0 15.5 0ZM23.1088 16.6223C23.8079 17.3052 24.5476 17.9478 25.1752 18.7013C25.4532 19.0346 25.7153 19.3792 25.9148 19.7669C26.1996 20.3196 25.9425 20.9257 25.4477 20.9586L22.3747 20.958C21.581 21.0236 20.9494 20.7035 20.4169 20.1609C19.9919 19.7285 19.5975 19.2666 19.1881 18.8194C19.0208 18.6359 18.8447 18.4631 18.6347 18.3272C18.2158 18.0546 17.8518 18.1381 17.6118 18.5758C17.3672 19.0211 17.3114 19.5146 17.288 20.0102C17.2546 20.7348 17.0361 20.9242 16.309 20.9583C14.7554 21.031 13.2814 20.7953 11.9114 20.0121C10.7028 19.3212 9.76731 18.3462 8.95217 17.2423C7.36486 15.0902 6.14921 12.7283 5.05693 10.2985C4.8111 9.7513 4.99095 9.45852 5.59463 9.44716C6.5976 9.42783 7.60056 9.43028 8.60353 9.44624C9.01171 9.45268 9.28179 9.68624 9.43862 10.0714C9.98061 11.4049 10.6451 12.6737 11.4777 13.8503C11.6996 14.1637 11.9261 14.4761 12.2486 14.6974C12.6047 14.9417 12.876 14.861 13.0438 14.4635C13.1513 14.2109 13.1976 13.9409 13.2209 13.6702C13.3007 12.743 13.3102 11.8162 13.1721 10.8927C13.0862 10.3148 12.7612 9.94158 12.1851 9.83233C11.8917 9.77678 11.9347 9.66813 12.0774 9.50056C12.3251 9.21084 12.5571 9.03161 13.0208 9.03161L16.4928 9.031C17.0401 9.13841 17.1628 9.38394 17.2371 9.93514L17.2402 13.7936C17.2337 14.0069 17.3473 14.6391 17.7303 14.7787C18.0372 14.88 18.2397 14.6339 18.4233 14.4396C19.2559 13.556 19.8492 12.5131 20.3804 11.4338C20.6149 10.9577 20.8171 10.4652 21.0136 9.97166C21.1596 9.60675 21.3868 9.42721 21.7986 9.43335L25.142 9.43734C25.2406 9.43734 25.3406 9.43826 25.4382 9.45514C26.0017 9.55151 26.1561 9.79396 25.9817 10.3436C25.7074 11.2073 25.1743 11.9266 24.6531 12.6479C24.0946 13.4201 23.4989 14.1652 22.9458 14.9408C22.4376 15.6497 22.4778 16.0066 23.1088 16.6223Z" fill="#999999"/>
</svg>
